<mxfile host="app.diagrams.net" modified="2023-10-26T15:52:20.288Z" agent="Mozilla/5.0 (Windows NT 10.0; Win64; x64) AppleWebKit/537.36 (KHTML, like Gecko) Chrome/118.0.0.0 Safari/537.36" etag="6aMQYlVapeIaljUoGBNZ" version="22.0.8" type="github">
  <diagram name="Page-1" id="yJ7thBRymDH_ek2OMt84">
    <mxGraphModel dx="1050" dy="566" grid="1" gridSize="10" guides="1" tooltips="1" connect="1" arrows="1" fold="1" page="1" pageScale="1" pageWidth="827" pageHeight="1169" math="0" shadow="0">
      <root>
        <mxCell id="0" />
        <mxCell id="1" parent="0" />
        <mxCell id="hirMSDl3_VdcEBWmxxy5-1" value="Users" style="shape=table;startSize=30;container=1;collapsible=0;childLayout=tableLayout;strokeColor=default;fontSize=16;" vertex="1" parent="1">
          <mxGeometry x="20" y="40" width="280" height="160" as="geometry" />
        </mxCell>
        <mxCell id="hirMSDl3_VdcEBWmxxy5-2" value="" style="shape=tableRow;horizontal=0;startSize=0;swimlaneHead=0;swimlaneBody=0;strokeColor=inherit;top=0;left=0;bottom=0;right=0;collapsible=0;dropTarget=0;fillColor=none;points=[[0,0.5],[1,0.5]];portConstraint=eastwest;fontSize=16;" vertex="1" parent="hirMSDl3_VdcEBWmxxy5-1">
          <mxGeometry y="30" width="280" height="43" as="geometry" />
        </mxCell>
        <mxCell id="hirMSDl3_VdcEBWmxxy5-3" value="UserId" style="shape=partialRectangle;html=1;whiteSpace=wrap;connectable=0;strokeColor=inherit;overflow=hidden;fillColor=none;top=0;left=0;bottom=0;right=0;pointerEvents=1;fontSize=16;" vertex="1" parent="hirMSDl3_VdcEBWmxxy5-2">
          <mxGeometry width="93" height="43" as="geometry">
            <mxRectangle width="93" height="43" as="alternateBounds" />
          </mxGeometry>
        </mxCell>
        <mxCell id="hirMSDl3_VdcEBWmxxy5-4" value="userName" style="shape=partialRectangle;html=1;whiteSpace=wrap;connectable=0;strokeColor=inherit;overflow=hidden;fillColor=none;top=0;left=0;bottom=0;right=0;pointerEvents=1;fontSize=16;" vertex="1" parent="hirMSDl3_VdcEBWmxxy5-2">
          <mxGeometry x="93" width="94" height="43" as="geometry">
            <mxRectangle width="94" height="43" as="alternateBounds" />
          </mxGeometry>
        </mxCell>
        <mxCell id="hirMSDl3_VdcEBWmxxy5-5" value="Name" style="shape=partialRectangle;html=1;whiteSpace=wrap;connectable=0;strokeColor=inherit;overflow=hidden;fillColor=none;top=0;left=0;bottom=0;right=0;pointerEvents=1;fontSize=16;" vertex="1" parent="hirMSDl3_VdcEBWmxxy5-2">
          <mxGeometry x="187" width="93" height="43" as="geometry">
            <mxRectangle width="93" height="43" as="alternateBounds" />
          </mxGeometry>
        </mxCell>
        <mxCell id="hirMSDl3_VdcEBWmxxy5-6" value="" style="shape=tableRow;horizontal=0;startSize=0;swimlaneHead=0;swimlaneBody=0;strokeColor=inherit;top=0;left=0;bottom=0;right=0;collapsible=0;dropTarget=0;fillColor=none;points=[[0,0.5],[1,0.5]];portConstraint=eastwest;fontSize=16;" vertex="1" parent="hirMSDl3_VdcEBWmxxy5-1">
          <mxGeometry y="73" width="280" height="44" as="geometry" />
        </mxCell>
        <mxCell id="hirMSDl3_VdcEBWmxxy5-7" value="" style="shape=partialRectangle;html=1;whiteSpace=wrap;connectable=0;strokeColor=inherit;overflow=hidden;fillColor=none;top=0;left=0;bottom=0;right=0;pointerEvents=1;fontSize=16;" vertex="1" parent="hirMSDl3_VdcEBWmxxy5-6">
          <mxGeometry width="93" height="44" as="geometry">
            <mxRectangle width="93" height="44" as="alternateBounds" />
          </mxGeometry>
        </mxCell>
        <mxCell id="hirMSDl3_VdcEBWmxxy5-8" value="" style="shape=partialRectangle;html=1;whiteSpace=wrap;connectable=0;strokeColor=inherit;overflow=hidden;fillColor=none;top=0;left=0;bottom=0;right=0;pointerEvents=1;fontSize=16;" vertex="1" parent="hirMSDl3_VdcEBWmxxy5-6">
          <mxGeometry x="93" width="94" height="44" as="geometry">
            <mxRectangle width="94" height="44" as="alternateBounds" />
          </mxGeometry>
        </mxCell>
        <mxCell id="hirMSDl3_VdcEBWmxxy5-9" value="" style="shape=partialRectangle;html=1;whiteSpace=wrap;connectable=0;strokeColor=inherit;overflow=hidden;fillColor=none;top=0;left=0;bottom=0;right=0;pointerEvents=1;fontSize=16;" vertex="1" parent="hirMSDl3_VdcEBWmxxy5-6">
          <mxGeometry x="187" width="93" height="44" as="geometry">
            <mxRectangle width="93" height="44" as="alternateBounds" />
          </mxGeometry>
        </mxCell>
        <mxCell id="hirMSDl3_VdcEBWmxxy5-10" value="" style="shape=tableRow;horizontal=0;startSize=0;swimlaneHead=0;swimlaneBody=0;strokeColor=inherit;top=0;left=0;bottom=0;right=0;collapsible=0;dropTarget=0;fillColor=none;points=[[0,0.5],[1,0.5]];portConstraint=eastwest;fontSize=16;" vertex="1" parent="hirMSDl3_VdcEBWmxxy5-1">
          <mxGeometry y="117" width="280" height="43" as="geometry" />
        </mxCell>
        <mxCell id="hirMSDl3_VdcEBWmxxy5-11" value="" style="shape=partialRectangle;html=1;whiteSpace=wrap;connectable=0;strokeColor=inherit;overflow=hidden;fillColor=none;top=0;left=0;bottom=0;right=0;pointerEvents=1;fontSize=16;" vertex="1" parent="hirMSDl3_VdcEBWmxxy5-10">
          <mxGeometry width="93" height="43" as="geometry">
            <mxRectangle width="93" height="43" as="alternateBounds" />
          </mxGeometry>
        </mxCell>
        <mxCell id="hirMSDl3_VdcEBWmxxy5-12" value="" style="shape=partialRectangle;html=1;whiteSpace=wrap;connectable=0;strokeColor=inherit;overflow=hidden;fillColor=none;top=0;left=0;bottom=0;right=0;pointerEvents=1;fontSize=16;" vertex="1" parent="hirMSDl3_VdcEBWmxxy5-10">
          <mxGeometry x="93" width="94" height="43" as="geometry">
            <mxRectangle width="94" height="43" as="alternateBounds" />
          </mxGeometry>
        </mxCell>
        <mxCell id="hirMSDl3_VdcEBWmxxy5-13" value="" style="shape=partialRectangle;html=1;whiteSpace=wrap;connectable=0;strokeColor=inherit;overflow=hidden;fillColor=none;top=0;left=0;bottom=0;right=0;pointerEvents=1;fontSize=16;" vertex="1" parent="hirMSDl3_VdcEBWmxxy5-10">
          <mxGeometry x="187" width="93" height="43" as="geometry">
            <mxRectangle width="93" height="43" as="alternateBounds" />
          </mxGeometry>
        </mxCell>
      </root>
    </mxGraphModel>
  </diagram>
</mxfile>
